<svg id="Layer_1" enable-background="new 0 0 512 512" height="512" viewBox="0 0 512 512" width="512" xmlns="http://www.w3.org/2000/svg"><g><g><g><g><g><g id="XMLID_1360_"><g id="XMLID_1408_"><g id="XMLID_1409_"><g id="XMLID_1410_"><g id="XMLID_1411_"><g id="XMLID_1412_"><g id="XMLID_1419_"><g id="XMLID_1420_"><g id="XMLID_1426_"><g id="XMLID_1427_"><g id="XMLID_1428_"><g id="XMLID_1435_"><g id="XMLID_1436_"><g id="XMLID_1444_"><g id="XMLID_1445_"><circle cx="256" cy="256" fill="#3d38be" r="256"/></g></g></g></g></g></g></g></g></g></g></g></g></g></g></g></g></g></g></g><path d="m65.883 361.938 146.315 146.315c14.234 2.454 28.866 3.747 43.802 3.747 141.385 0 256-114.615 256-256 0-27.558-4.372-54.091-12.431-78.964l-45.468-45.468z" fill="#002659"/><g><g><path d="m173.68 414.263h-39.445c-10.193 0-18.456-8.263-18.456-18.456v-44.64h76.357v44.64c0 10.193-8.263 18.456-18.456 18.456z" fill="#fff0d7"/><path d="m377.765 414.263h-39.445c-10.193 0-18.456-8.263-18.456-18.456v-44.64h76.357v44.64c0 10.193-8.263 18.456-18.456 18.456z" fill="#f2c697"/></g><path d="m70.591 134.354h370.818v216.813h-370.818z" fill="#565656"/><path d="m256 134.35h185.41v216.82h-185.41z" fill="#2f3030"/><g><path d="m424.85 368.873h-337.7c-19.954 0-36.187-16.234-36.187-36.188v-179.849c0-19.954 16.233-36.188 36.187-36.188h337.7c19.954 0 36.188 16.234 36.188 36.188v179.849c-.001 19.954-16.234 36.188-36.188 36.188zm-337.7-222.225c-3.354 0-6.188 2.833-6.188 6.188v179.849c0 3.354 2.834 6.188 6.188 6.188h337.7c3.354 0 6.188-2.833 6.188-6.188v-179.849c0-3.355-2.833-6.188-6.188-6.188z" fill="#ffd321"/></g><g><path d="m424.85 116.65h-168.85v30h168.85c3.35 0 6.19 2.83 6.19 6.19v179.85c0 3.35-2.84 6.18-6.19 6.18h-168.85v30h168.85c19.95 0 36.19-16.23 36.19-36.18v-179.85c0-19.96-16.24-36.19-36.19-36.19z" fill="#ff9d21"/></g><g><g><g><g><path d="m157.152 299.594h-20v-93.666h-20.02v-20h40.02z" fill="#00ecce"/></g></g></g><g><g><g><path d="m289.458 299.594h-20v-93.666h-20.021v-20h40.021z" fill="#00ecce"/></g></g></g><g><g><path d="m289.46 185.93v113.66h-20v-93.66h-13.46v-20z" fill="#00c6cb"/></g></g><g><g><path d="m357.57 301.505c-20.449 0-37.086-16.637-37.086-37.086v-43.317c0-20.449 16.637-37.086 37.086-37.086s37.086 16.637 37.086 37.086v43.317c0 20.45-16.637 37.086-37.086 37.086zm0-97.489c-9.421 0-17.086 7.665-17.086 17.086v43.317c0 9.421 7.664 17.086 17.086 17.086 9.421 0 17.086-7.665 17.086-17.086v-43.317c0-9.421-7.665-17.086-17.086-17.086z" fill="#00c6cb"/></g></g><g><g><g><g><circle cx="202.936" cy="271.198" fill="#fff0d7" r="15"/></g></g></g><g><circle cx="202.936" cy="214.323" fill="#fff0d7" r="15"/></g></g></g></g></g></svg>